M48
; DRILL file KiCad 10.0.0 date 2026-04-14T22:51:39
; FORMAT={-:-/ absolute / metric / decimal}
; #@! TF.CreationDate,2026-04-14T22:51:39-04:00
; #@! TF.GenerationSoftware,Kicad,Pcbnew,10.0.0
; #@! TF.FileFunction,Plated,1,2,PTH
FMAT,2
METRIC
; #@! TA.AperFunction,Plated,PTH,ViaDrill
T1C0.300
; #@! TA.AperFunction,Plated,PTH,ComponentDrill
T2C0.787
; #@! TA.AperFunction,Plated,PTH,ComponentDrill
T3C0.800
; #@! TA.AperFunction,Plated,PTH,ComponentDrill
T4C0.850
; #@! TA.AperFunction,Plated,PTH,ComponentDrill
T5C0.900
; #@! TA.AperFunction,Plated,PTH,ComponentDrill
T6C1.000
%
G90
G05
T1
X50.0Y-101.5
T2
X130.38Y-85.92
X130.38Y-88.46
X130.38Y-91.0
X130.38Y-93.54
X130.38Y-96.08
X130.38Y-98.62
X130.38Y-101.16
X130.38Y-103.7
X138.0Y-85.92
X138.0Y-88.46
X138.0Y-91.0
X138.0Y-93.54
X138.0Y-96.08
X138.0Y-98.62
X138.0Y-101.16
X138.0Y-103.7
T3
X140.69Y-104.5
X141.695Y-84.69
X141.695Y-87.23
X141.695Y-89.77
X141.695Y-92.31
X143.5Y-98.0
X145.5Y-98.0
X148.31Y-104.5
X149.315Y-84.69
X149.315Y-87.23
X149.315Y-89.77
X149.315Y-92.31
X154.38Y-93.0
X162.0Y-93.0
T4
X155.46Y-86.5
X158.0Y-86.5
X160.54Y-86.5
T5
X107.46Y-104.0
X110.0Y-104.0
X112.5Y-93.0
X115.04Y-93.0
X122.46Y-107.0
X123.0Y-86.5
X125.0Y-107.0
X125.54Y-86.5
X135.5Y-110.0
X138.04Y-110.0
X156.0Y-110.5
X158.54Y-110.5
X167.23Y-86.5
X169.77Y-86.5
X170.23Y-107.0
X172.77Y-107.0
X179.0Y-93.0
X181.54Y-93.0
X183.23Y-104.0
X185.77Y-104.0
T6
X151.0Y-97.96
X151.0Y-100.5
X156.5Y-99.0
X161.5Y-99.0
M30
