%TF.GenerationSoftware,KiCad,Pcbnew,10.0.0*%
%TF.CreationDate,2026-04-14T23:42:37-04:00*%
%TF.ProjectId,blinky board,626c696e-6b79-4206-926f-6172642e6b69,rev?*%
%TF.SameCoordinates,Original*%
%TF.FileFunction,Copper,L1,Top*%
%TF.FilePolarity,Positive*%
%FSLAX46Y46*%
G04 Gerber Fmt 4.6, Leading zero omitted, Abs format (unit mm)*
G04 Created by KiCad (PCBNEW 10.0.0) date 2026-04-14 23:42:37*
%MOMM*%
%LPD*%
G01*
G04 APERTURE LIST*
G04 Aperture macros list*
%AMRoundRect*
0 Rectangle with rounded corners*
0 $1 Rounding radius*
0 $2 $3 $4 $5 $6 $7 $8 $9 X,Y pos of 4 corners*
0 Add a 4 corners polygon primitive as box body*
4,1,4,$2,$3,$4,$5,$6,$7,$8,$9,$2,$3,0*
0 Add four circle primitives for the rounded corners*
1,1,$1+$1,$2,$3*
1,1,$1+$1,$4,$5*
1,1,$1+$1,$6,$7*
1,1,$1+$1,$8,$9*
0 Add four rect primitives between the rounded corners*
20,1,$1+$1,$2,$3,$4,$5,0*
20,1,$1+$1,$4,$5,$6,$7,0*
20,1,$1+$1,$6,$7,$8,$9,0*
20,1,$1+$1,$8,$9,$2,$3,0*%
G04 Aperture macros list end*
%TA.AperFunction,ComponentPad*%
%ADD10R,1.700000X1.700000*%
%TD*%
%TA.AperFunction,ComponentPad*%
%ADD11C,2.000000*%
%TD*%
%TA.AperFunction,ComponentPad*%
%ADD12C,1.600000*%
%TD*%
%TA.AperFunction,ComponentPad*%
%ADD13R,1.800000X1.800000*%
%TD*%
%TA.AperFunction,ComponentPad*%
%ADD14C,1.800000*%
%TD*%
%TA.AperFunction,ComponentPad*%
%ADD15RoundRect,0.250000X-0.550000X-0.550000X0.550000X-0.550000X0.550000X0.550000X-0.550000X0.550000X0*%
%TD*%
%TA.AperFunction,ComponentPad*%
%ADD16C,1.700000*%
%TD*%
%TA.AperFunction,ComponentPad*%
%ADD17R,1.295400X1.295400*%
%TD*%
%TA.AperFunction,ComponentPad*%
%ADD18C,1.295400*%
%TD*%
%TA.AperFunction,ComponentPad*%
%ADD19RoundRect,0.412500X-0.412500X-0.412500X0.412500X-0.412500X0.412500X0.412500X-0.412500X0.412500X0*%
%TD*%
%TA.AperFunction,ComponentPad*%
%ADD20C,1.650000*%
%TD*%
%TA.AperFunction,ViaPad*%
%ADD21C,0.600000*%
%TD*%
%TA.AperFunction,Conductor*%
%ADD22C,0.200000*%
%TD*%
G04 APERTURE END LIST*
D10*
%TO.P,J2,1,Pin_1_1*%
%TO.N,N/C*%
X151500000Y-107000000D03*
%TD*%
D11*
%TO.P,C5,1*%
%TO.N,Net-(U3-CONT)*%
X156500000Y-99000000D03*
%TO.P,C5,2*%
%TO.N,GND*%
X161500000Y-99000000D03*
%TD*%
D12*
%TO.P,R5,1*%
%TO.N,+5V*%
X154380000Y-93000000D03*
%TO.P,R5,2*%
%TO.N,Net-(U3-DISCH)*%
X162000000Y-93000000D03*
%TD*%
D13*
%TO.P,D4,1,K_1*%
%TO.N,Net-(D10-K)*%
X167230000Y-86500000D03*
D14*
%TO.P,D4,2,A_2*%
%TO.N,Net-(D4-A)*%
X169770000Y-86500000D03*
%TD*%
D12*
%TO.P,R6,1*%
%TO.N,Net-(D10-K)*%
X140690000Y-104500000D03*
%TO.P,R6,2*%
%TO.N,GND*%
X148310000Y-104500000D03*
%TD*%
D13*
%TO.P,D11,1,K_1*%
%TO.N,Net-(D10-K)*%
X156000000Y-110500000D03*
D14*
%TO.P,D11,2,A_2*%
%TO.N,Net-(D11-A)*%
X158540000Y-110500000D03*
%TD*%
D15*
%TO.P,C6,1*%
%TO.N,TR*%
X143500000Y-98000000D03*
D12*
%TO.P,C6,2*%
%TO.N,GND*%
X145500000Y-98000000D03*
%TD*%
D13*
%TO.P,D3,1,K_1*%
%TO.N,Net-(D10-K)*%
X123000000Y-86500000D03*
D14*
%TO.P,D3,2,A_2*%
%TO.N,Net-(D3-A)*%
X125540000Y-86500000D03*
%TD*%
D10*
%TO.P,J1,1,Pin_1_1*%
%TO.N,GND*%
X151000000Y-97960000D03*
D16*
%TO.P,J1,2,Pin_2_2*%
%TO.N,+5V*%
X151000000Y-100500000D03*
%TD*%
D15*
%TO.P,U3,1,GND_1*%
%TO.N,GND*%
X141695000Y-84690000D03*
D12*
%TO.P,U3,2,TRIG_2*%
%TO.N,TR*%
X141695000Y-87230000D03*
%TO.P,U3,3,OUT_3*%
%TO.N,OUT*%
X141695000Y-89770000D03*
%TO.P,U3,4,~{RST}_4*%
%TO.N,+5V*%
X141695000Y-92310000D03*
%TO.P,U3,5,CONT_5*%
%TO.N,Net-(U3-CONT)*%
X149315000Y-92310000D03*
%TO.P,U3,6,THRES_6*%
%TO.N,TR*%
X149315000Y-89770000D03*
%TO.P,U3,7,DISCH_7*%
%TO.N,Net-(U3-DISCH)*%
X149315000Y-87230000D03*
%TO.P,U3,8,VCC_8*%
%TO.N,+5V*%
X149315000Y-84690000D03*
%TD*%
D13*
%TO.P,D8,1,K_1*%
%TO.N,Net-(D10-K)*%
X179000000Y-93000000D03*
D14*
%TO.P,D8,2,A_2*%
%TO.N,Net-(D8-A)*%
X181540000Y-93000000D03*
%TD*%
D13*
%TO.P,D10,1,K_1*%
%TO.N,Net-(D10-K)*%
X122460000Y-107000000D03*
D14*
%TO.P,D10,2,A_2*%
%TO.N,Net-(D10-A)*%
X125000000Y-107000000D03*
%TD*%
D13*
%TO.P,D9,1,K_1*%
%TO.N,Net-(D10-K)*%
X107460000Y-104000000D03*
D14*
%TO.P,D9,2,A_2*%
%TO.N,Net-(D9-A)*%
X110000000Y-104000000D03*
%TD*%
D13*
%TO.P,D12,1,K_1*%
%TO.N,Net-(D10-K)*%
X183230000Y-104000000D03*
D14*
%TO.P,D12,2,A_2*%
%TO.N,Net-(D12-A)*%
X185770000Y-104000000D03*
%TD*%
D13*
%TO.P,D5,1,K_1*%
%TO.N,Net-(D10-K)*%
X112500000Y-93000000D03*
D14*
%TO.P,D5,2,A_2*%
%TO.N,Net-(D5-A)*%
X115040000Y-93000000D03*
%TD*%
D17*
%TO.P,U4,1,Q5_1*%
%TO.N,Net-(D8-A)*%
X130380000Y-85920000D03*
D18*
%TO.P,U4,2,Q1_2*%
%TO.N,Net-(D4-A)*%
X130380000Y-88460000D03*
%TO.P,U4,3,Q0_3*%
%TO.N,Net-(D3-A)*%
X130380000Y-91000000D03*
%TO.P,U4,4,Q2_4*%
%TO.N,Net-(D5-A)*%
X130380000Y-93540000D03*
%TO.P,U4,5,Q6_5*%
%TO.N,Net-(D9-A)*%
X130380000Y-96080000D03*
%TO.P,U4,6,Q7_6*%
%TO.N,Net-(D10-A)*%
X130380000Y-98620000D03*
%TO.P,U4,7,Q3_7*%
%TO.N,Net-(D6-A)*%
X130380000Y-101160000D03*
%TO.P,U4,8,VSS_8*%
%TO.N,GND*%
X130380000Y-103700000D03*
%TO.P,U4,9,Q8_9*%
%TO.N,Net-(D11-A)*%
X138000000Y-103700000D03*
%TO.P,U4,10,Q4_10*%
%TO.N,Net-(D7-A)*%
X138000000Y-101160000D03*
%TO.P,U4,11,Q9_11*%
%TO.N,Net-(D12-A)*%
X138000000Y-98620000D03*
%TO.P,U4,12,Cout_12*%
%TO.N,unconnected-(U4-Cout-Pad12)*%
X138000000Y-96080000D03*
%TO.P,U4,13,CKEN_13*%
%TO.N,GND*%
X138000000Y-93540000D03*
%TO.P,U4,14,CLK_14*%
%TO.N,unconnected-(U4-CLK-Pad14)*%
X138000000Y-91000000D03*
%TO.P,U4,15,Reset_15*%
%TO.N,GND*%
X138000000Y-88460000D03*
%TO.P,U4,16,VDD_16*%
%TO.N,+5V*%
X138000000Y-85920000D03*
%TD*%
D13*
%TO.P,D7,1,K_1*%
%TO.N,Net-(D10-K)*%
X170230000Y-107000000D03*
D14*
%TO.P,D7,2,A_2*%
%TO.N,Net-(D7-A)*%
X172770000Y-107000000D03*
%TD*%
D13*
%TO.P,D6,1,K_1*%
%TO.N,Net-(D10-K)*%
X135500000Y-110000000D03*
D14*
%TO.P,D6,2,A_2*%
%TO.N,Net-(D6-A)*%
X138040000Y-110000000D03*
%TD*%
D19*
%TO.P,RV2,1,1_1*%
%TO.N,Net-(U3-DISCH)*%
X155460000Y-86500000D03*
D20*
%TO.P,RV2,2,2_2*%
X158000000Y-86500000D03*
%TO.P,RV2,3,3_3*%
%TO.N,TR*%
X160540000Y-86500000D03*
%TD*%
D21*
%TO.N,*%
X50000000Y-101500000D03*
%TD*%
%TO.N,Net-(D11-A)*%
D22*
X158540000Y-110040000D02*
X158540000Y-110500000D01*
X151900000Y-103400000D02*
X158540000Y-110040000D01*
X138000000Y-103700000D02*
X138300000Y-103400000D01*
X138300000Y-103400000D02*
X151900000Y-103400000D01*
X158540000Y-110500000D02*
X158500000Y-110500000D01*
%TO.N,Net-(U3-CONT)*%
X156005000Y-99000000D02*
X149315000Y-92310000D01*
X156500000Y-99000000D02*
X157000000Y-99000000D01*
X156500000Y-99000000D02*
X156005000Y-99000000D01*
%TO.N,GND*%
X148310000Y-104500000D02*
X148310000Y-104810000D01*
X148310000Y-104810000D02*
X148500000Y-105000000D01*
%TO.N,+5V*%
X138080000Y-85920000D02*
X138500000Y-85500000D01*
X138000000Y-85920000D02*
X138000000Y-86500000D01*
X138000000Y-85920000D02*
X138080000Y-85920000D01*
%TO.N,Net-(U3-DISCH)*%
X158000000Y-86500000D02*
X155460000Y-86500000D01*
X162000000Y-90500000D02*
X162000000Y-93000000D01*
X155460000Y-86500000D02*
X155000000Y-86500000D01*
X158000000Y-86500000D02*
X162000000Y-90500000D01*
X154270000Y-87230000D02*
X149315000Y-87230000D01*
X155000000Y-86500000D02*
X154270000Y-87230000D01*
%TO.N,Net-(D10-K)*%
X183230000Y-104000000D02*
X184430000Y-105200000D01*
X112500000Y-93500000D02*
X107460000Y-98540000D01*
X171430000Y-108200000D02*
X179030000Y-108200000D01*
X156000000Y-110500000D02*
X157200000Y-111700000D01*
X157200000Y-111700000D02*
X163927483Y-111700000D01*
X122460000Y-107000000D02*
X125460000Y-110000000D01*
X135500000Y-110000000D02*
X136700000Y-111200000D01*
X140690000Y-109047057D02*
X140690000Y-104500000D01*
X107460000Y-98540000D02*
X107460000Y-104000000D01*
X107460000Y-104000000D02*
X110460000Y-107000000D01*
X140690000Y-109047057D02*
X154547057Y-109047057D01*
X110460000Y-107000000D02*
X122460000Y-107000000D01*
X186970000Y-104497057D02*
X186970000Y-100970000D01*
X138537057Y-111200000D02*
X140690000Y-109047057D01*
X184430000Y-105200000D02*
X186267057Y-105200000D01*
X170230000Y-107000000D02*
X171430000Y-108200000D01*
X154547057Y-109047057D02*
X156000000Y-110500000D01*
X136700000Y-111200000D02*
X138537057Y-111200000D01*
X179000000Y-93000000D02*
X173730000Y-93000000D01*
X112500000Y-93000000D02*
X112500000Y-93500000D01*
X179030000Y-108200000D02*
X183230000Y-104000000D01*
X186970000Y-100970000D02*
X179000000Y-93000000D01*
X119000000Y-86500000D02*
X112500000Y-93000000D01*
X186267057Y-105200000D02*
X186970000Y-104497057D01*
X173730000Y-93000000D02*
X167230000Y-86500000D01*
X168627483Y-107000000D02*
X170230000Y-107000000D01*
X123000000Y-86500000D02*
X119000000Y-86500000D01*
X125460000Y-110000000D02*
X135500000Y-110000000D01*
X163927483Y-111700000D02*
X168627483Y-107000000D01*
%TO.N,Net-(D4-A)*%
X166860000Y-83590000D02*
X135250000Y-83590000D01*
X169770000Y-86500000D02*
X166860000Y-83590000D01*
X135250000Y-83590000D02*
X130380000Y-88460000D01*
%TO.N,TR*%
X160540000Y-86500000D02*
X163200000Y-89160000D01*
X140595000Y-88330000D02*
X141695000Y-87230000D01*
X141239365Y-93410000D02*
X140595000Y-92765635D01*
X141500000Y-87000000D02*
X141500000Y-87035000D01*
X161154163Y-101750000D02*
X150623654Y-101750000D01*
X141695000Y-87230000D02*
X141500000Y-87035000D01*
X163200000Y-89160000D02*
X163200000Y-99704164D01*
X148215000Y-90870000D02*
X149315000Y-89770000D01*
X143500000Y-98000000D02*
X143500000Y-98500000D01*
X160540000Y-86500000D02*
X160000000Y-86500000D01*
X150623654Y-101750000D02*
X148215000Y-99341346D01*
X140595000Y-92765635D02*
X140595000Y-88330000D01*
X143500000Y-98000000D02*
X144841346Y-99341346D01*
X148215000Y-99341346D02*
X148215000Y-90870000D01*
X149315000Y-89770000D02*
X145675000Y-93410000D01*
X145675000Y-93410000D02*
X141239365Y-93410000D01*
X163200000Y-99704164D02*
X161154163Y-101750000D01*
X144841346Y-99341346D02*
X148215000Y-99341346D01*
%TO.N,Net-(D3-A)*%
X130040000Y-91000000D02*
X130380000Y-91000000D01*
X125540000Y-86500000D02*
X130040000Y-91000000D01*
%TO.N,Net-(D8-A)*%
X181540000Y-93000000D02*
X181540000Y-93460000D01*
X168911478Y-83097978D02*
X170955340Y-85141840D01*
X181540000Y-93460000D02*
X181500000Y-93500000D01*
X181500000Y-93000000D02*
X181540000Y-93000000D01*
X130380000Y-85920000D02*
X133202022Y-83097978D01*
X170955340Y-85141840D02*
X173641840Y-85141840D01*
X173641840Y-85141840D02*
X181500000Y-93000000D01*
X133202022Y-83097978D02*
X168911478Y-83097978D01*
%TO.N,Net-(D10-A)*%
X125000000Y-104000000D02*
X130380000Y-98620000D01*
X125000000Y-107000000D02*
X125000000Y-104000000D01*
%TO.N,Net-(D9-A)*%
X122460000Y-104000000D02*
X130380000Y-96080000D01*
X110000000Y-104000000D02*
X122460000Y-104000000D01*
%TO.N,Net-(D12-A)*%
X185770000Y-104000000D02*
X184270000Y-102500000D01*
X141880000Y-102500000D02*
X138000000Y-98620000D01*
X184270000Y-102500000D02*
X141880000Y-102500000D01*
%TO.N,Net-(D5-A)*%
X129840000Y-93000000D02*
X130380000Y-93540000D01*
X115040000Y-93000000D02*
X129840000Y-93000000D01*
%TO.N,Net-(D6-A)*%
X129432300Y-104092551D02*
X129432300Y-102107700D01*
X134139749Y-108800000D02*
X129432300Y-104092551D01*
X136840000Y-108800000D02*
X134139749Y-108800000D01*
X138040000Y-110460000D02*
X138000000Y-110500000D01*
X129432300Y-102107700D02*
X130380000Y-101160000D01*
X138040000Y-110000000D02*
X136840000Y-108800000D01*
X138040000Y-110000000D02*
X138040000Y-110460000D01*
%TO.N,Net-(D7-A)*%
X168770000Y-103000000D02*
X139840000Y-103000000D01*
X139840000Y-103000000D02*
X138000000Y-101160000D01*
X172770000Y-107000000D02*
X168770000Y-103000000D01*
%TO.N,unconnected-(U4-CLK-Pad14)*%
X138000000Y-91000000D02*
X138500000Y-91500000D01*
%TD*%
M02*
